<svg width="13" height="13" viewBox="0 0 13 13" fill="none" xmlns="http://www.w3.org/2000/svg">
<path d="M1.52015 11.4872C0.415256 10.3975 -0.103093 8.74039 0.208438 7.21739C0.516616 5.50695 1.8451 4.01599 3.52274 3.54609C4.34405 4.37932 5.1758 5.20138 6.00083 6.03014C6.17076 6.1941 6.32652 6.3726 6.50987 6.52203C5.92519 6.52799 5.33939 6.50638 4.75545 6.52911C3.94868 6.58016 3.26525 7.3411 3.31034 8.15012C3.30288 8.96658 4.03513 9.70442 4.85197 9.69957C6.45881 9.7033 8.06529 9.6992 9.67139 9.70218C10.7271 10.759 11.7809 11.8181 12.8422 12.8697C12.6783 12.901 12.5117 12.8924 12.3462 12.8909C9.86852 12.8913 7.39154 12.8909 4.91457 12.8913C3.65839 12.8946 2.40332 12.3849 1.52015 11.4872Z" fill="#7C4EE4"/>
<path d="M3.22763 3.26447C2.18311 2.22703 1.15461 1.17244 0.0974117 0.147294C2.57028 0.156982 5.04278 0.148784 7.51566 0.151765C7.93078 0.157355 8.35001 0.128289 8.76029 0.206172C9.8119 0.351131 10.808 0.865753 11.5358 1.63787C12.3448 2.4767 12.818 3.6237 12.8549 4.7871C12.8825 5.74591 12.6112 6.71218 12.0921 7.51858C11.4813 8.45653 10.5374 9.19809 9.45155 9.49472C8.64067 8.6708 7.81713 7.85844 7.00103 7.03899C6.8367 6.88658 6.69882 6.70398 6.51026 6.57803C6.54231 6.55157 6.57696 6.52921 6.61497 6.51132C7.13332 6.52213 7.65279 6.52064 8.17151 6.51393C8.97643 6.49157 9.68296 5.75597 9.66694 4.94994C9.69041 4.2952 9.24734 3.66618 8.63657 3.44147C8.40367 3.34086 8.14654 3.33937 7.89724 3.34161C6.3925 3.3431 4.88814 3.34123 3.38377 3.34272C3.32079 3.3431 3.26862 3.31701 3.22763 3.26447Z" fill="#7C4EE4"/>
</svg>
