<svg className='search-icon'
width="12" height="12" viewBox="0 0 8 8" fill="none" xmlns="http://www.w3.org/2000/svg">
    <path fill-rule="evenodd" clip-rule="evenodd" d="M5.91188 1.26215C7.25385 2.53553 7.33691 4.64627 6.09915 6.02116L7.63841 7.55531C7.70621 7.62551 7.70524 7.7371 7.63623 7.80611C7.56722 7.87512 7.45563 7.87609 7.38543 7.80829L5.84617 6.27414C4.47128 7.51189 2.36054 7.42884 1.08716 6.08687C-0.186215 4.7449 -0.158522 2.63271 1.1496 1.32459C2.45772 0.0164655 4.56991 -0.0112267 5.91188 1.26215ZM0.534352 3.75125C0.534352 5.431 1.89606 6.79271 3.57581 6.79271C5.25474 6.79074 6.61529 5.43018 6.61726 3.75125C6.61726 2.0715 5.25556 0.709798 3.57581 0.709798C1.89606 0.709798 0.534352 2.0715 0.534352 3.75125Z" fill="#333333"/>
</svg>
